<?xml version="1.0" standalone="no"?>
<!DOCTYPE svg PUBLIC "-//W3C//DTD SVG 20010904//EN"
 "http://www.w3.org/TR/2001/REC-SVG-20010904/DTD/svg10.dtd">
<svg version="1.0" xmlns="http://www.w3.org/2000/svg"
 width="500.000000pt" height="500.000000pt" viewBox="0 0 500.000000 500.000000"
 preserveAspectRatio="xMidYMid meet">

<g transform="translate(0.000000,500.000000) scale(0.100000,-0.100000)"
fill="#000000" stroke="none">
<path d="M2495 3441 c-5 -9 -385 -1158 -385 -1166 0 -2 -35 -5 -77 -7 -50 -2
-78 -7 -81 -15 -3 -10 41 -13 197 -13 172 0 201 2 201 15 0 12 -18 15 -106 15
-81 0 -105 3 -101 13 2 6 24 71 47 144 l44 131 27 -29 c22 -24 35 -29 72 -29
38 0 49 5 71 31 14 17 26 41 26 55 0 24 1 24 89 24 l89 0 18 -52 c9 -29 19
-58 21 -64 2 -6 -32 -51 -76 -98 -45 -48 -93 -108 -108 -134 -25 -42 -28 -56
-28 -142 0 -122 11 -190 31 -190 13 0 14 9 9 53 -9 71 3 97 87 183 l71 74 214
0 c183 0 213 2 213 15 0 12 -15 15 -78 15 l-78 0 -194 590 c-107 325 -198 590
-202 590 -4 0 -9 -4 -13 -9z m0 -494 l64 -185 -79 -4 c-62 -4 -92 -11 -140
-35 -34 -16 -59 -25 -57 -19 2 6 35 107 72 223 38 117 70 211 72 209 2 -2 33
-87 68 -189z m88 -262 l16 -45 -89 0 c-82 0 -103 5 -159 37 -2 2 2 9 9 18 18
22 65 33 142 34 l66 1 15 -45z m137 -407 c0 -5 -12 -8 -27 -8 -26 0 -26 0 -8
20 14 16 20 17 27 8 4 -7 8 -16 8 -20z"/>
<path d="M2395 1744 c-68 -73 5 -185 100 -154 64 21 84 96 39 149 -22 26 -33
31 -70 31 -36 0 -50 -5 -69 -26z"/>
</g>
</svg>
